<svg width="189" height="125" viewBox="0 0 189 125" fill="none" xmlns="http://www.w3.org/2000/svg">
<path d="M187 62L172 50L161 14C160.789 13.3678 160.548 13.375 160 13C159.452 12.625 158.661 11.9652 158 12H127V9C127 8.18997 126.569 7.57278 126 7C125.431 6.42722 124.804 6 124 6H112C111.196 6 110.569 6.42722 110 7C109.431 7.57278 109 8.18997 109 9V63C107.546 62.0851 105.702 61.2117 104 61C105.12 59.1596 105.968 57.1582 106 55C106.017 51.9703 105.006 49.2576 103 47C100.994 44.7424 97.9913 43.3181 95 43C96.1195 41.1596 96.9683 39.1582 97 37C97 33.7599 95.2746 30.2911 93 28C90.7254 25.7089 88.2168 24 85 24H33C29.7832 24 27.2746 25.7089 25 28C22.7254 30.2911 21 33.7599 21 37C21.0317 39.1582 21.8805 41.1596 23 43C20.0087 43.3181 17.006 44.7424 15 47C12.994 49.2576 11.9834 51.9703 12 55C12.0317 57.1582 12.8805 59.1596 14 61C11.7868 61.2542 9.75825 61.6225 8 63C6.24175 64.3775 4.78933 66.902 4 69C3.21067 71.0981 2.58965 72.7948 3 75C3.41035 77.2052 4.50994 79.3323 6 81C5.88067 81.3436 6.00111 81.636 6 82V92H3C2.1958 92 1.56866 91.4272 1 92C0.431341 92.5728 0 94.19 0 95V107C0 107.81 0.431341 108.427 1 109C1.56866 109.573 2.1958 110 3 110H22C23.0612 112.446 24.8704 114.411 27 116C29.1296 117.589 32.3678 118.691 35 119C37.6322 119.309 39.5648 119.053 42 118C44.4352 116.947 47.4088 115.134 49 113C50.5912 115.134 52.5648 116.947 55 118C57.4352 119.053 59.3678 119.309 62 119C64.6322 118.691 67.8704 117.589 70 116C72.1296 114.411 73.9389 112.446 75 110H144C145.182 112.719 146.534 114.376 149 116C151.466 117.624 155.053 119 158 119C160.947 119 163.534 117.624 166 116C168.466 114.376 170.818 112.719 172 110H185C185.804 110 186.431 109.573 187 109C187.569 108.427 188 107.81 188 107V64C187.998 63.5412 188.199 63.4124 188 63C187.801 62.5876 187.357 62.2844 187 62ZM160 30L166 49H139V30H160ZM115 12H121V92H115V12ZM103 67C104.608 67 105.863 67.8544 107 69C108.137 70.1456 109 71.3799 109 73C109 74.6201 108.137 76.8544 107 78C105.863 79.1456 104.608 79 103 79H62C63.1111 77.159 64 75.1545 64 73C64 70.8455 63.1111 68.841 62 67H103ZM94 49C95.6084 49 96.8627 49.8544 98 51C99.1373 52.1456 100 53.3799 100 55C100 56.6201 99.1373 57.8544 98 59C96.8627 60.1456 95.6084 61 94 61H53C54.1111 59.159 55 57.1545 55 55C55 52.8455 54.1111 50.841 53 49H62H71C71.7648 49 72.6306 48.848 73 49C73.3694 49.152 73.6009 49.0023 74 49H83V43H75L71 49H94ZM58 73C58 74.2081 57.6664 75.9955 57 77C56.3336 78.0045 55.1081 78.5377 54 79C52.8919 79.4623 51.1764 79.2357 50 79C48.8236 78.7643 47.8481 78.8543 47 78C46.1519 77.1457 46.234 75.1849 46 74C45.766 72.8151 45.541 72.1162 46 71C46.459 69.8838 47.0027 68.6712 48 68C48.9973 67.3288 50.8006 67 52 67C53.6084 67 54.8627 67.8544 56 69C57.1373 70.1456 58 71.3799 58 73ZM44 30H72V24H64V30H73C72.8106 30.0454 73.1894 30.0454 73 30C74.3342 30 74.9181 30.0661 80 30H85C86.6084 30 87.8627 30.8544 89 32C90.1373 33.1456 91 35.3799 91 37C91 38.6201 90.1373 39.8544 89 41C87.8627 42.1456 86.6084 43 85 43H44C45.1111 41.159 45 39.1545 45 37C45 34.8455 45.1111 31.841 44 30ZM49 55C49 56.2081 47.6664 56.9955 47 58C46.3336 59.0045 46.1081 60.5377 45 61C43.8919 61.4623 42.1764 61.2357 41 61C39.8236 60.7643 38.8481 59.8543 38 59C37.1519 58.1457 37.234 57.1849 37 56C36.766 54.8151 36.541 54.1162 37 53C37.459 51.8838 38.0027 50.6712 39 50C39.9973 49.3288 40.8006 49 42 49C43.6084 49 45.8627 49.8544 47 51C48.1373 52.1456 49 53.3799 49 55ZM39 73C39 74.2081 38.6664 75.9955 38 77C37.3336 78.0045 37.1081 78.5377 36 79C34.8919 79.4623 33.1764 79.2357 32 79C30.8236 78.7643 29.8481 78.8543 29 78C28.1519 77.1457 27.234 75.1849 27 74C26.766 72.8151 27.541 72.1162 28 71C28.459 69.8838 29.0027 68.6712 30 68C30.9973 67.3288 31.8006 67 33 67C34.6084 67 36.8627 67.8544 38 69C39.1373 70.1456 39 71.3799 39 73ZM33 30C34.1994 30 36.0027 30.3288 37 31C37.9973 31.6712 38.541 32.8838 39 34C39.459 35.1162 39.234 36.8151 39 38C38.766 39.1849 38.8481 40.1457 38 41C37.1519 41.8543 36.1764 42.7643 35 43C33.8236 43.2357 32.1081 42.4623 31 42C29.8919 41.5377 28.6664 41.0045 28 40C27.3336 38.9955 27 38.2081 27 37C27 35.3799 27.8627 33.1456 29 32C30.1373 30.8544 31.3916 30 33 30ZM24 49C25.1994 49 27.0027 49.3288 28 50C28.9973 50.6712 29.541 51.8838 30 53C30.459 54.1162 30.234 54.8151 30 56C29.766 57.1849 29.8481 58.1457 29 59C28.1519 59.8543 26.1764 60.7643 25 61C23.8236 61.2357 23.1081 61.4623 22 61C20.8919 60.5377 19.6664 59.0045 19 58C18.3336 56.9955 18 56.2081 18 55C18 53.3799 18.8627 52.1456 20 51C21.1373 49.8544 22.3916 49 24 49ZM15 67C16.1994 67 18.0027 67.3288 19 68C19.9973 68.6712 20.541 69.8838 21 71C21.459 72.1162 21.234 72.8151 21 74C20.766 75.1849 19.8481 77.1457 19 78C18.1519 78.8543 17.1764 78.7643 16 79C14.8236 79.2357 14.1081 79.4623 13 79C11.8919 78.5377 10.6664 78.0045 10 77C9.33362 75.9955 9 74.2081 9 73C9 71.3799 9.86268 70.1456 11 69C12.1373 67.8544 13.3916 67 15 67ZM21 104H6V98H22C21.1574 99.9245 20.9972 101.897 21 104ZM36 113C34.2008 113 32.496 112.007 31 111C29.504 109.993 28.6885 108.674 28 107C27.3115 105.326 26.649 103.777 27 102C27.351 100.223 28.7278 98.2814 30 97C31.2722 95.7186 33.2354 95.3535 35 95C36.7646 94.6465 38.3378 94.3065 40 95C41.6622 95.6935 43.0004 97.4932 44 99C44.9996 100.507 45 102.188 45 104C45 106.43 44.706 108.282 43 110C41.294 111.718 38.4126 113 36 113ZM61 113C59.2008 113 57.496 112.007 56 111C54.504 109.993 52.6885 108.674 52 107C51.3115 105.326 51.649 103.777 52 102C52.351 100.223 52.7278 98.2814 54 97C55.2722 95.7186 57.2354 95.3535 59 95C60.7646 94.6465 62.3378 94.3065 64 95C65.6622 95.6935 67.0004 97.4932 68 99C68.9996 100.507 70 102.188 70 104C70 106.43 68.706 108.282 67 110C65.294 111.718 63.4126 113 61 113ZM70 92C67.384 90.0014 64.2833 87.9821 61 88C58.6463 88 56.1052 88.9398 54 90C51.8948 91.0602 50.4122 93.1034 49 95C47.5878 93.1034 45.1052 91.0602 43 90C40.8948 88.9398 38.3537 88 36 88C32.7167 87.9821 29.616 90.0014 27 92H12V85H109V92H70ZM143 104H76C76.0028 101.897 75.8426 99.9245 75 98H144C143.157 99.9245 142.997 101.897 143 104ZM158 113C156.201 113 154.496 112.007 153 111C151.504 109.993 149.689 108.674 149 107C148.311 105.326 148.649 103.777 149 102C149.351 100.223 149.728 98.2814 151 97C152.272 95.7186 154.235 95.3535 156 95C157.765 94.6465 159.338 94.3065 161 95C162.662 95.6935 164 97.4932 165 99C166 100.507 167 102.188 167 104C167 106.43 165.706 108.282 164 110C162.294 111.718 160.413 113 158 113ZM182 104H173C173.003 101.897 172.843 99.9245 172 98H182V104ZM182 92H167C164.401 89.9592 161.296 88 158 88C154.704 88 151.599 89.9592 149 92H127V18H155L158 24H136C135.196 24 134.569 24.4272 134 25C133.431 25.5728 133 26.19 133 27V52C133 52.81 133.431 53.4272 134 54C134.569 54.5728 135.196 55 136 55H169L176 61H173C172.196 61 171.569 61.4272 171 62C170.431 62.5728 170 63.19 170 64V76C170 76.81 170.431 77.4272 171 78C171.569 78.5728 172.196 79 173 79H182V92ZM182 73H176V67H182V73Z" fill="#7CB56B"/>
</svg>
